<svg width="24" height="24" viewBox="0 0 24 24" fill="none" xmlns="http://www.w3.org/2000/svg">
<path d="M8.275 13.225H9.2V11.15H10.4C10.6621 11.15 10.8818 11.0613 11.0591 10.8841C11.2364 10.7068 11.325 10.4871 11.325 10.225V9.025C11.325 8.76292 11.2364 8.54323 11.0591 8.36595C10.8818 8.18865 10.6621 8.1 10.4 8.1H8.275V13.225ZM9.2 10.225V9.025H10.4V10.225H9.2ZM12.425 13.225H14.525C14.775 13.225 14.9917 13.1363 15.175 12.9591C15.3583 12.7818 15.45 12.5621 15.45 12.3V9.025C15.45 8.76292 15.3583 8.54323 15.175 8.36595C14.9917 8.18865 14.775 8.1 14.525 8.1H12.425V13.225ZM13.35 12.3V9.025H14.525V12.3H13.35ZM16.675 13.225H17.6V11.15H18.85V10.225H17.6V9.025H18.85V8.1H16.675V13.225ZM6.5 19C6.1 19 5.75 18.85 5.45 18.55C5.15 18.25 5 17.9 5 17.5V3.5C5 3.1 5.15 2.75 5.45 2.45C5.75 2.15 6.1 2 6.5 2H20.5C20.9 2 21.25 2.15 21.55 2.45C21.85 2.75 22 3.1 22 3.5V17.5C22 17.9 21.85 18.25 21.55 18.55C21.25 18.85 20.9 19 20.5 19H6.5ZM6.5 17.5H20.5V3.5H6.5V17.5ZM3.5 22C3.1 22 2.75 21.85 2.45 21.55C2.15 21.25 2 20.9 2 20.5V5H3.5V20.5H19V22H3.5Z" fill="#FF5800"/>
</svg>
