<svg width="115" height="28" viewBox="0 0 115 28" fill="none" xmlns="http://www.w3.org/2000/svg">
<mask id="mask0_1_11" style="mask-type:luminance" maskUnits="userSpaceOnUse" x="0" y="-1" width="115" height="29">
<path d="M114.307 -0.00999451H0.342896V27.98H114.307V-0.00999451Z" fill="white"/>
</mask>
<g mask="url(#mask0_1_11)">
<path d="M26.055 25.7367H19.0659V17.0576L12.0768 10.0337V2.30666H26.055V25.7367ZM2.75804 25.7367V2.30666H9.74712V11.0034L16.7362 18.0274V25.7367H2.75804ZM28.3846 -0.0339203H0.428345V28.0795H28.3846V-0.0339203Z" fill="black"/>
<path d="M50.2018 9.46523L42.9565 17.0622H49.8248V18.6138H39.1455V18.5874L46.3907 10.9904H39.551V9.43878H50.204V9.46523H50.2018Z" fill="black"/>
<path d="M95.5049 18.6114L88.8098 13.875V18.6114H86.9448V9.43634H88.8098V13.8487L95.3164 9.43634H98.1874L91.6544 13.8222L98.4153 18.6114H95.5049Z" fill="black"/>
<path d="M114.344 18.6114L109.272 15.1842H110.213C111.996 15.1842 113.566 14.1593 113.566 12.4051V12.2838C113.566 10.503 111.983 9.43634 110.145 9.43634H102.714V18.6114H104.578V13.8222L111.59 18.6114H114.344ZM104.578 10.9901H110.186C110.884 10.9901 111.528 11.2744 111.717 11.8409C111.73 11.9356 111.743 12.1781 111.743 12.4227C111.743 12.6651 111.73 12.9075 111.717 13.0023C111.528 13.5026 110.884 13.8112 110.186 13.8112H104.578V10.9901Z" fill="black"/>
<path d="M65.3613 16.9806V18.6138H55.8764V9.43878H65.3613V11.0718H57.6888V13.0422H64.9603V14.6754H57.6888V16.9828H65.3613V16.9806Z" fill="black"/>
<path d="M80.8977 16.9806V18.6138H71.4128V9.43878H80.8977V11.0718H73.2252V13.0422H80.4967V14.6754H73.2252V16.9828H80.8977V16.9806Z" fill="black"/>
</g>
</svg>
