<svg width="211" height="36" viewBox="0 0 211 36" fill="none" xmlns="http://www.w3.org/2000/svg">
<path fill-rule="evenodd" clip-rule="evenodd" d="M11.9057 2.27963C8.71913 4.26579 7.34924 4.87104 5.11012 5.28199C4.25802 5.43843 3.66439 5.52181 1.45331 5.79537C0.446484 5.92001 0.498785 5.54863 0.50012 12.5653C0.501455 19.4662 0.540528 19.9191 1.35247 22.4225C2.36475 25.5435 4.58723 28.6745 7.18469 30.6384C8.55737 31.6765 13.9515 34.9747 14.2762 34.9747C14.6029 34.9747 19.9607 31.6964 21.3441 30.65C23.9577 28.6731 26.1767 25.5508 27.1913 22.4225C28.0033 19.9185 28.0423 19.4671 28.0436 12.556C28.0449 6.47235 28.0396 6.33424 27.7988 6.09321C27.599 5.89319 27.1993 5.80229 25.6751 5.61029C21.6254 5.10018 20.4493 4.66654 16.6445 2.28145C15.4191 1.51332 14.4627 0.992542 14.2782 0.993027C14.0965 0.993513 13.1157 1.52546 11.9057 2.27963ZM16.0256 3.89307C19.4144 6.0165 21.532 6.82844 24.5865 7.17554C25.2205 7.24763 25.8895 7.33745 26.073 7.3752L26.4066 7.44389L26.4035 12.4405C26.4018 15.1887 26.3494 17.9562 26.2871 18.5903C25.9588 21.9304 24.4751 25.1953 22.2058 27.5709C20.8865 28.952 20.187 29.4761 17.0325 31.4469L14.2719 33.1716L11.5112 31.4469C8.35678 29.4761 7.65733 28.952 6.33793 27.5709C4.06871 25.1953 2.585 21.9304 2.25663 18.5903C2.19438 17.9562 2.14195 15.1887 2.14025 12.4405L2.1371 7.44389L2.4708 7.3752C2.65441 7.33745 3.32328 7.24763 3.95732 7.17554C7.01602 6.82795 9.22115 5.97876 12.573 3.85739C13.4741 3.28722 14.2314 2.81886 14.2562 2.81668C14.2811 2.81449 15.0773 3.29887 16.0256 3.89307ZM16.3658 15.4639L13.4241 18.4058L12.0915 17.0771L10.7587 15.7482L10.1841 16.3229L9.60958 16.8976L11.3627 18.6542C12.8462 20.1405 13.1724 20.4108 13.4824 20.4108C13.8002 20.4108 14.287 19.9723 17.1547 17.1027C18.973 15.2833 20.4598 13.7405 20.4586 13.6741C20.4569 13.5669 19.4494 12.522 19.3479 12.522C19.3254 12.522 17.9836 13.8459 16.3658 15.4639Z" fill="#FF5800"/>
<path opacity="0.85" d="M40.9136 16.88H39.8589V8.42493H44.8745V9.37415H40.9136V16.88ZM44.4117 16.88L47.5581 8.42493H48.6011L51.7417 16.88H50.6343L49.7788 14.4601H46.3745L45.5191 16.88H44.4117ZM48.0679 9.69055L46.6968 13.5636H49.4624L48.0913 9.69055H48.0679ZM52.8316 16.88V8.42493H55.8433C57.4312 8.42493 58.5562 9.52063 58.5562 11.1261V11.1378C58.5562 12.7433 57.4312 13.8624 55.8433 13.8624H53.8863V16.88H52.8316ZM55.5738 9.36243H53.8863V12.9249H55.5738C56.7808 12.9249 57.4781 12.2628 57.4781 11.1495V11.1378C57.4781 10.0245 56.7808 9.36243 55.5738 9.36243ZM58.6265 16.88L61.773 8.42493H62.8159L65.9566 16.88H64.8492L63.9937 14.4601H60.5894L59.7339 16.88H58.6265ZM62.2827 9.69055L60.9117 13.5636H63.6773L62.3062 9.69055H62.2827ZM67.0464 16.88V8.42493H68.1011V12.0812H72.7417V8.42493H73.7964V16.88H72.7417V13.0304H68.1011V16.88H67.0464ZM77.6929 16.88V9.37415H75.0269V8.42493H81.4136V9.37415H78.7476V16.88H77.6929ZM82.6441 16.88V8.42493H83.687V15.1456H83.7222L88.3687 8.42493H89.3941V16.88H88.3511V10.1827H88.3159L83.6695 16.88H82.6441ZM96.9351 16.88H95.8804V13.6281H94.1812L91.8492 16.88H90.5952L93.021 13.4991C91.8257 13.2238 91.0347 12.2804 91.0347 11.0265V11.0148C91.0347 9.49133 92.1538 8.42493 93.7417 8.42493H96.9351V16.88ZM95.8804 12.6788V9.37415H94.0171C92.8042 9.37415 92.1128 9.96594 92.1128 11.0148V11.0265C92.1128 12.0812 92.8101 12.6788 94.0171 12.6788H95.8804ZM101.16 16.88V8.42493H102.214V12.0812H106.855V8.42493H107.91V16.88H106.855V13.0304H102.214V16.88H101.16ZM108.994 16.88L112.14 8.42493H113.183L116.324 16.88H115.216L114.361 14.4601H110.957L110.101 16.88H108.994ZM112.65 9.69055L111.279 13.5636H114.044L112.673 9.69055H112.65ZM119.201 16.88L122.347 8.42493H123.39L126.531 16.88H125.423L124.568 14.4601H121.164L120.308 16.88H119.201ZM122.857 9.69055L121.486 13.5636H124.251L122.88 9.69055H122.857ZM127.621 16.88V8.42493H130.826C132.273 8.42493 133.251 9.26868 133.251 10.5343V10.546C133.251 11.4191 132.595 12.2687 131.722 12.3917V12.4152C132.941 12.5558 133.679 13.3761 133.679 14.4952V14.507C133.679 15.9952 132.613 16.88 130.814 16.88H127.621ZM130.585 9.35657H128.675V12.0695H130.257C131.505 12.0695 132.185 11.5714 132.185 10.6573V10.6456C132.185 9.8136 131.605 9.35657 130.585 9.35657ZM130.556 12.9777H128.675V15.9484H130.656C131.921 15.9484 132.595 15.4386 132.595 14.4659V14.4542C132.595 13.4757 131.904 12.9777 130.556 12.9777ZM136.72 16.88V9.37415H134.054V8.42493H140.441V9.37415H137.775V16.88H136.72ZM144.543 17.0206C142.14 17.0206 140.64 15.339 140.64 12.6554V12.6437C140.64 9.96594 142.146 8.2843 144.543 8.2843C146.933 8.2843 148.433 9.96594 148.433 12.6437V12.6554C148.433 15.339 146.939 17.0206 144.543 17.0206ZM144.543 16.048C146.283 16.048 147.355 14.7179 147.355 12.6554V12.6437C147.355 10.5695 146.265 9.25696 144.543 9.25696C142.814 9.25696 141.718 10.5636 141.718 12.6437V12.6554C141.718 14.7355 142.808 16.048 144.543 16.048ZM149.863 16.88V8.42493H151.082L154.011 15.5499H154.046L156.976 8.42493H158.195V16.88H157.21V10.3468H157.175L154.474 16.88H153.584L150.882 10.3468H150.847V16.88H149.863ZM163.527 17.0206C161.125 17.0206 159.625 15.339 159.625 12.6554V12.6437C159.625 9.96594 161.13 8.2843 163.527 8.2843C165.918 8.2843 167.418 9.96594 167.418 12.6437V12.6554C167.418 15.339 165.923 17.0206 163.527 17.0206ZM163.527 16.048C165.267 16.048 166.339 14.7179 166.339 12.6554V12.6437C166.339 10.5695 165.25 9.25696 163.527 9.25696C161.798 9.25696 160.703 10.5636 160.703 12.6437V12.6554C160.703 14.7355 161.793 16.048 163.527 16.048ZM168.847 16.88V8.42493H173.787V9.37415H169.902V11.7941H171.912C173.5 11.7941 174.63 12.8429 174.63 14.337V14.3488C174.63 15.837 173.511 16.88 171.923 16.88H168.847ZM169.902 15.9308H171.648C172.861 15.9308 173.552 15.3624 173.552 14.3488V14.337C173.552 13.3175 172.855 12.7433 171.648 12.7433H169.902V15.9308ZM176.218 16.88V8.42493H177.261V15.1456H177.296L181.943 8.42493H182.968V16.88H181.925V10.1827H181.89L177.244 16.88H176.218ZM184.55 16.9386C184.398 16.9386 184.246 16.9152 184.14 16.88V15.9366C184.205 15.9542 184.363 15.9718 184.457 15.9718C185.259 15.9718 185.617 15.3156 185.71 13.6808L186.015 8.42493H191.207V16.88H190.152V9.37415H186.976L186.707 13.7218C186.566 15.9718 185.916 16.9386 184.55 16.9386ZM192.964 16.88V8.42493H194.019V11.5597H196.087C197.681 11.5597 198.806 12.6613 198.806 14.2198V14.2316C198.806 15.7843 197.693 16.88 196.099 16.88H192.964ZM195.824 12.5089H194.019V15.9308H195.824C197.037 15.9308 197.728 15.3156 197.728 14.2316V14.2198C197.728 13.13 197.031 12.5089 195.824 12.5089Z" fill="#24292B"/>
<path d="M43.7847 33.8131C41.4849 33.8131 39.9615 32.4728 39.8296 30.7076L39.8223 30.5978H41.8658L41.8804 30.649C42.0342 31.4474 42.774 32.0626 43.792 32.0626C44.9492 32.0626 45.7622 31.2716 45.7622 30.1437V30.129C45.7549 29.0157 44.9419 28.2321 43.7993 28.2321C43.2574 28.2321 42.7959 28.3932 42.437 28.6788C42.2246 28.84 42.0562 29.045 41.9317 29.2648H40.0054L40.4888 23.0612H47.2344V24.819H42.2466L41.9903 27.7926H42.0342C42.4737 27.0822 43.3452 26.65 44.4146 26.65C46.4214 26.65 47.8716 28.0929 47.8716 30.0851V30.0997C47.8716 32.3116 46.2017 33.8131 43.7847 33.8131ZM52.4566 33.7252C52.0977 33.7252 51.8047 33.674 51.6582 33.63V31.6964C51.7608 31.7184 51.9585 31.7477 52.149 31.7477C53.1304 31.7477 53.4673 30.8981 53.5479 29.3087L53.8628 23.0612H61.187V33.63H58.9751V24.8849H55.8404L55.584 29.4552C55.4375 32.1945 54.5659 33.7252 52.4566 33.7252ZM63.0767 33.63V23.0612H70.0786V24.8849H65.2886V27.4191H69.8076V29.1476H65.2886V31.8063H70.0786V33.63H63.0767ZM74.3194 33.63V24.8849H71.2578V23.0612H79.5855V24.8849H76.5313V33.63H74.3194ZM83.9214 33.63V23.0612H86.126V29.9972H86.148L90.9453 23.0612H92.8789V33.63H90.6743V26.6573H90.6524L85.8404 33.63H83.9214ZM94.9663 33.7252C94.6075 33.7252 94.3145 33.674 94.168 33.63V31.6964C94.2705 31.7184 94.4683 31.7477 94.6587 31.7477C95.6402 31.7477 95.9771 30.8981 96.0576 29.3087L96.3726 23.0612H103.697V33.63H101.485V24.8849H98.3501L98.0938 29.4552C97.9473 32.1945 97.0757 33.7252 94.9663 33.7252ZM105.601 33.63V23.0612H107.806V29.9972H107.828L112.625 23.0612H114.559V33.63H112.354V26.6573H112.332L107.52 33.63H105.601ZM121.883 33.63V25.09H121.839L119.144 26.921V24.9581L121.876 23.0612H124.073V33.63H121.883ZM130.621 33.8131C127.94 33.8131 126.314 31.7111 126.314 28.3492V28.3346C126.314 24.9728 127.94 22.8781 130.621 22.8781C133.301 22.8781 134.927 24.9728 134.927 28.3346V28.3492C134.927 31.7111 133.301 33.8131 130.621 33.8131ZM130.621 32.0406C131.939 32.0406 132.693 30.671 132.693 28.3492V28.3346C132.693 26.0128 131.939 24.6505 130.621 24.6505C129.302 24.6505 128.548 26.0128 128.548 28.3346V28.3492C128.548 30.671 129.302 32.0406 130.621 32.0406ZM140.464 33.8131C137.784 33.8131 136.158 31.7111 136.158 28.3492V28.3346C136.158 24.9728 137.784 22.8781 140.464 22.8781C143.145 22.8781 144.771 24.9728 144.771 28.3346V28.3492C144.771 31.7111 143.145 33.8131 140.464 33.8131ZM140.464 32.0406C141.783 32.0406 142.537 30.671 142.537 28.3492V28.3346C142.537 26.0128 141.783 24.6505 140.464 24.6505C139.146 24.6505 138.392 26.0128 138.392 28.3346V28.3492C138.392 30.671 139.146 32.0406 140.464 32.0406ZM153.282 33.8131C150.601 33.8131 148.975 31.7111 148.975 28.3492V28.3346C148.975 24.9728 150.601 22.8781 153.282 22.8781C155.962 22.8781 157.588 24.9728 157.588 28.3346V28.3492C157.588 31.7111 155.962 33.8131 153.282 33.8131ZM153.282 32.0406C154.6 32.0406 155.355 30.671 155.355 28.3492V28.3346C155.355 26.0128 154.6 24.6505 153.282 24.6505C151.963 24.6505 151.209 26.0128 151.209 28.3346V28.3492C151.209 30.671 151.963 32.0406 153.282 32.0406ZM163.126 33.8131C160.445 33.8131 158.819 31.7111 158.819 28.3492V28.3346C158.819 24.9728 160.445 22.8781 163.126 22.8781C165.806 22.8781 167.432 24.9728 167.432 28.3346V28.3492C167.432 31.7111 165.806 33.8131 163.126 33.8131ZM163.126 32.0406C164.444 32.0406 165.198 30.671 165.198 28.3492V28.3346C165.198 26.0128 164.444 24.6505 163.126 24.6505C161.807 24.6505 161.053 26.0128 161.053 28.3346V28.3492C161.053 30.671 161.807 32.0406 163.126 32.0406ZM172.969 33.8131C170.289 33.8131 168.663 31.7111 168.663 28.3492V28.3346C168.663 24.9728 170.289 22.8781 172.969 22.8781C175.65 22.8781 177.276 24.9728 177.276 28.3346V28.3492C177.276 31.7111 175.65 33.8131 172.969 33.8131ZM172.969 32.0406C174.288 32.0406 175.042 30.671 175.042 28.3492V28.3346C175.042 26.0128 174.288 24.6505 172.969 24.6505C171.651 24.6505 170.897 26.0128 170.897 28.3346V28.3492C170.897 30.671 171.651 32.0406 172.969 32.0406ZM184.029 33.63H181.817V23.0612H184.029V27.4264H184.395L188.05 23.0612H190.547L186.27 28.0709L190.892 33.63H188.145L184.395 29.1183H184.029V33.63ZM191.968 33.63V23.0612H194.524L197.52 30.6564H197.571L200.567 23.0612H203.123V33.63H201.153V26.4816H201.094L198.238 33.63H196.854L193.997 26.4816H193.939V33.63H191.968Z" fill="#24292B"/>
</svg>
